<?xml version="1.0" encoding="utf-8"?>
<!-- Generator: Adobe Illustrator 17.1.0, SVG Export Plug-In . SVG Version: 6.00 Build 0)  -->
<!DOCTYPE svg PUBLIC "-//W3C//DTD SVG 1.1//EN" "http://www.w3.org/Graphics/SVG/1.1/DTD/svg11.dtd">
<svg version="1.1" id="Layer_1" xmlns="http://www.w3.org/2000/svg" xmlns:xlink="http://www.w3.org/1999/xlink" x="0px" y="0px"
	 viewBox="0 0 1136 1136" enable-background="new 0 0 1136 1136" xml:space="preserve">
<g>
	<path fill="#FDC430" d="M760.1,32.7C708.2,14,652.8,2.7,595.1,0v68.1c48.5,2.6,95.1,12.1,139,27.6L760.1,32.7z"/>
	<path fill="#FDC430" d="M950.1,146.8c-41.5-37.7-88.6-69.2-139.9-93.4l-26,62.9c43,20.6,82.6,47.3,117.8,78.8L950.1,146.8z"/>
	<path fill="#FDC430" d="M348.1,118.2l-26.6-62.8c-51.1,24.6-97.8,56.7-139,94.7l48.5,47.7C265.8,166.1,305.3,139.2,348.1,118.2z"/>
	<path fill="#FDC430" d="M541,68.1V0c-59.4,2.8-116.4,14.6-169.6,34.3L397.9,97C443,80.8,491,70.7,541,68.1z"/>
	<path fill="#FDC430" d="M1019.3,350.9l62.8-26.1c-24.3-51.2-56-98.3-93.7-139.7l-48.1,48.2C971.8,268.3,998.6,307.9,1019.3,350.9z"
		/>
	<path fill="#FDC430" d="M193,236.5l-48.5-47.8c-37.4,41.7-68.7,89-92.5,140.5l63.1,25.6C135.4,311.6,161.7,271.8,193,236.5z"/>
	<path fill="#FDC430" d="M1067.8,539.8l68.1-0.1c-2.8-57.7-14.3-113.1-33-165l-62.9,26.2C1055.5,444.7,1065.2,491.4,1067.8,539.8z"
		/>
	<path fill="#FDC430" d="M597.2,1067.7l0.3,68.2c57.7-2.9,113.1-14.5,164.9-33.4l-26.3-62.9C692.3,1055.2,645.7,1064.9,597.2,1067.7
		z"/>
	<path fill="#FDC430" d="M786.1,1018.7l26.3,62.8c51.2-24.4,98.2-56.2,139.5-94.1l-48.3-48C868.5,971.2,829,997.9,786.1,1018.7z"/>
	<path fill="#FDC430" d="M94.7,404.9l-63.1-25.6C13.3,431.3,2.3,486.8,0,544.5l68-0.4C70.3,495.6,79.6,448.9,94.7,404.9z"/>
	<path fill="#FDC430" d="M941.7,901.1l48.3,48c37.6-41.6,69-88.8,93.1-140.1l-62.9-25.9C999.6,826.2,973.1,865.8,941.7,901.1z"/>
	<path fill="#FDC430" d="M1068,594c-2.5,48.5-12,95.2-27.3,139.1l63,25.9c18.5-52,29.7-107.4,32.3-165.1L1068,594z"/>
	<path fill="#FDC430" d="M404,1041l-25.8,63.1c52,18.4,107.5,29.5,165.2,32l-0.3-68C494.6,1065.6,447.9,1056.2,404,1041z"/>
	<path fill="#FDC430" d="M68.4,598.2l-68.2,0.4c3.1,57.7,14.7,113,33.7,164.9l62.8-26.5C81,693.3,71.3,646.7,68.4,598.2z"/>
	<path fill="#FDC430" d="M117.7,786.9l-62.8,26.4c24.5,51.1,56.4,98,94.4,139.3l47.9-48.4C165.5,869.3,138.6,829.8,117.7,786.9z"/>
	<path fill="#FDC430" d="M187.8,990.7c41.7,37.5,88.9,68.8,140.3,92.8l25.7-63c-43.1-20.4-82.8-46.9-118.1-78.2L187.8,990.7z"/>
	<path fill="#FDC430" d="M1014.5,568c0-246.2-200.3-446.5-446.5-446.5c-246.2,0-446.5,200.3-446.5,446.5
		c0,246.2,200.3,446.5,446.5,446.5C814.2,1014.5,1014.5,814.2,1014.5,568z M568,852.1c-156.9,0-284.1-127.2-284.1-284.1
		c0-156.9,127.2-284.1,284.1-284.1c86.8,0,164.5,39,216.7,100.4l-82,92.7c-29.2-43.2-78.6-71.5-134.7-71.5
		c-89.8,0-162.6,72.8-162.6,162.6c0,89.8,72.8,162.6,162.6,162.6c55.4,0,104.2-27.7,133.6-70l0,0.1l85.5,88.3
		C735.1,811.9,656.2,852.1,568,852.1z"/>
</g>
</svg>
